<svg xmlns="http://www.w3.org/2000/svg" width="60" height="30" viewBox="0 0 60 30">
    <defs>
        <linearGradient id="9miwdgi4ga" x1="0%" x2="100%" y1="100%" y2="0%">
            <stop offset="0%" stop-color="#F508B7"/>
            <stop offset="64.625%" stop-color="#9023FC"/>
            <stop offset="100%" stop-color="#9102FF"/>
        </linearGradient>
        <filter id="5fenl7xo7b">
            <feColorMatrix in="SourceGraphic" values="0 0 0 0 1.000000 0 0 0 0 1.000000 0 0 0 0 1.000000 0 0 0 1.000000 0"/>
        </filter>
    </defs>
    <g fill="none" fill-rule="evenodd">
        <rect width="59" height="29" x=".5" y=".5" fill="#FFF" fill-opacity=".1" stroke="#A41EEF" rx="14.5"/>
        <g transform="translate(33 3)">
            <circle cx="12" cy="12" r="12" fill="url(#9miwdgi4ga)"/>
            <g stroke="#282828" stroke-linecap="round" stroke-linejoin="round" filter="url(#5fenl7xo7b)" transform="translate(4 4)">
                <path d="M8 10.333c1.289 0 2.333-1.164 2.333-2.6m-.057-4.044c-.036-.174-.087-.341-.152-.5C9.757 2.291 8.944 1.667 8 1.667c-1.289 0-2.333 1.163-2.333 2.6v3.466"/>
                <path d="M4.333 7v.533c0 .576.107 1.123.3 1.62m2.413 2.326c.304.091.624.14.954.14 2.025 0 3.667-1.83 3.667-4.086V7M8 12L8 14M5 14.333L11 14.333M13.667 2.333L2.333 13.666"/>
            </g>
        </g>
    </g>
</svg>
