<svg xmlns="http://www.w3.org/2000/svg" width="90" height="90" viewBox="0 0 90 90">
    <g fill="#B3B3B3" fill-rule="evenodd">
        <path fill-rule="nonzero" d="M25.252 22.95c-2.307 0-4.183 1.875-4.183 4.179 0 2.304 1.876 4.178 4.183 4.178 2.306 0 4.182-1.874 4.182-4.178s-1.876-4.178-4.182-4.178zm0 6.308c-1.176 0-2.132-.955-2.132-2.13 0-1.173.956-2.129 2.132-2.129 1.175 0 2.131.956 2.131 2.13s-.956 2.13-2.131 2.13zM36.156 22.95c-2.306 0-4.183 1.875-4.183 4.179 0 2.304 1.877 4.178 4.183 4.178 2.307 0 4.183-1.874 4.183-4.178s-1.876-4.178-4.183-4.178zm0 6.308c-1.175 0-2.132-.955-2.132-2.13 0-1.173.957-2.129 2.132-2.129 1.176 0 2.132.956 2.132 2.13s-.956 2.13-2.132 2.13zM47.06 22.95c-2.306 0-4.182 1.875-4.182 4.179 0 2.304 1.876 4.178 4.183 4.178 2.306 0 4.182-1.874 4.182-4.178s-1.876-4.178-4.182-4.178zm0 6.308c-1.175 0-2.13-.955-2.13-2.13 0-1.173.955-2.129 2.13-2.129 1.176 0 2.133.956 2.133 2.13s-.957 2.13-2.132 2.13zM25.252 33.143c-2.307 0-4.183 1.874-4.183 4.178s1.876 4.178 4.183 4.178c2.306 0 4.182-1.874 4.182-4.178s-1.876-4.178-4.182-4.178zm0 6.307c-1.176 0-2.132-.955-2.132-2.13 0-1.173.956-2.129 2.132-2.129 1.175 0 2.131.956 2.131 2.13s-.956 2.13-2.131 2.13zM47.06 33.143c-2.306 0-4.182 1.874-4.182 4.178s1.876 4.178 4.183 4.178c2.306 0 4.182-1.874 4.182-4.178s-1.876-4.178-4.182-4.178zm0 6.307c-1.175 0-2.13-.955-2.13-2.13 0-1.173.955-2.129 2.13-2.129 1.176 0 2.133.956 2.133 2.13s-.957 2.13-2.132 2.13zM36.156 33.143c-2.306 0-4.183 1.874-4.183 4.178s1.877 4.178 4.183 4.178c2.307 0 4.183-1.874 4.183-4.178s-1.876-4.178-4.183-4.178zm0 6.307c-1.175 0-2.132-.955-2.132-2.13 0-1.173.957-2.129 2.132-2.129 1.176 0 2.132.956 2.132 2.13s-.956 2.13-2.132 2.13zM36.156 43.334c-2.306 0-4.182 1.875-4.182 4.179 0 2.304 1.876 4.178 4.182 4.178 2.307 0 4.183-1.874 4.183-4.178s-1.876-4.179-4.183-4.179zm0 6.308c-1.175 0-2.132-.955-2.132-2.13 0-1.174.957-2.129 2.132-2.129 1.176 0 2.132.955 2.132 2.13 0 1.174-.956 2.13-2.132 2.13zM25.252 43.334c-2.307 0-4.183 1.875-4.183 4.179 0 2.304 1.876 4.178 4.183 4.178 2.306 0 4.182-1.874 4.182-4.178s-1.876-4.179-4.182-4.179zm0 6.308c-1.176 0-2.132-.955-2.132-2.13 0-1.174.956-2.129 2.132-2.129 1.175 0 2.131.955 2.131 2.13 0 1.174-.956 2.13-2.131 2.13z" transform="translate(10 16)"/>
        <path d="M15.798 27.13l1.507-1.507c.4-.4.4-1.048 0-1.448-.4-.4-1.05-.4-1.45 0l-1.508 1.505-1.507-1.505c-.4-.4-1.05-.4-1.45 0-.4.4-.4 1.048 0 1.448l1.507 1.506-1.507 1.506c-.401.4-.401 1.048 0 1.449.2.2.462.3.725.3.262 0 .525-.1.725-.3l1.507-1.506 1.507 1.505c.2.2.463.3.726.3.262 0 .524-.1.725-.3.4-.4.4-1.048 0-1.448l-1.507-1.506zM15.798 37.32l1.507-1.505c.4-.4.4-1.048 0-1.449-.4-.4-1.05-.4-1.45 0l-1.508 1.506-1.507-1.505c-.4-.4-1.05-.4-1.45 0-.4.4-.4 1.048 0 1.448l1.507 1.506-1.507 1.506c-.401.4-.401 1.048 0 1.448.2.2.462.3.725.3.262 0 .525-.1.725-.3l1.507-1.505 1.507 1.505c.2.2.463.3.726.3.262 0 .524-.1.725-.3.4-.4.4-1.048 0-1.448l-1.507-1.506zM17.305 49.018l-1.507-1.506 1.507-1.505c.4-.4.4-1.049 0-1.449-.401-.4-1.05-.4-1.45 0l-1.508 1.506-1.507-1.506c-.4-.4-1.05-.4-1.45 0-.401.4-.401 1.049 0 1.449l1.507 1.505-1.508 1.506c-.4.4-.4 1.049 0 1.449.2.2.463.3.726.3.262 0 .524-.1.725-.3l1.507-1.506 1.507 1.506c.2.2.463.3.725.3.263 0 .525-.1.726-.3.4-.4.4-1.049 0-1.449z" transform="translate(10 16)"/>
        <path fill-rule="nonzero" d="M69.941 52.066l-2.797-14.702c-.105-.556-.643-.92-1.199-.815-.556.106-.921.642-.815 1.198l2.796 14.701c.157.823-.539 1.6-1.486 1.6H51.265l9.843-9.832c.18-.18.3-.443.3-.724v-25.31l2.812 14.784c.106.556.643.921 1.199.815.556-.105.922-.641.816-1.197L61.4 7.174c-.07-1.513-1.319-2.722-2.849-2.722h-8.986V1.158c0-.565-.46-1.024-1.026-1.024-.566 0-1.025.459-1.025 1.024v3.294h-6.867V1.158c0-.565-.46-1.024-1.026-1.024-.566 0-1.025.459-1.025 1.024v3.294h-6.868V1.158c0-.565-.459-1.024-1.025-1.024-.567 0-1.026.459-1.026 1.024v3.294h-6.867V1.158c0-.565-.459-1.024-1.025-1.024-.567 0-1.026.459-1.026 1.024v3.294h-6.867V1.158c0-.565-.459-1.024-1.025-1.024-.567 0-1.026.459-1.026 1.024v3.294H2.856C1.28 4.452 0 5.732 0 7.305v48.708c0 1.573 1.281 2.853 2.856 2.853H28.31c.567 0 1.026-.459 1.026-1.024 0-.566-.46-1.025-1.026-1.025H2.856c-.444 0-.805-.36-.805-.803V17.752h57.306v24.715h-11.51c-1.574 0-2.855 1.28-2.855 2.853v11.497H33.097c-.567 0-1.026.459-1.026 1.024 0 .566.46 1.025 1.026 1.025h12.92c.265 0 .53-.105.725-.3l2.472-2.47H66.44c2.227 0 3.9-1.936 3.501-4.03zM2.051 15.703V7.305c0-.443.361-.804.805-.804h8.986v4.601c0 .566.46 1.024 1.026 1.024.566 0 1.025-.458 1.025-1.024V6.501h6.867v4.601c0 .566.46 1.024 1.026 1.024.566 0 1.025-.458 1.025-1.024V6.501h6.867v4.601c0 .566.46 1.024 1.026 1.024.566 0 1.025-.458 1.025-1.024V6.501h6.868v4.601c0 .566.459 1.024 1.025 1.024.567 0 1.026-.458 1.026-1.024V6.501h6.867v4.601c0 .566.459 1.024 1.025 1.024.567 0 1.026-.458 1.026-1.024V6.501h8.986c.444 0 .805.36.805.804v8.398H2.051zm44.992 39.665V45.32c0-.443.36-.804.804-.804h10.06L47.043 55.368z" transform="translate(10 16)"/>
    </g>
</svg>
