<svg xmlns="http://www.w3.org/2000/svg" width="90" height="90" viewBox="0 0 90 90">
    <defs>
        <filter id="0wpdx3soqa">
            <feColorMatrix in="SourceGraphic" values="0 0 0 0 0.701961 0 0 0 0 0.701961 0 0 0 0 0.701961 0 0 0 1.000000 0"/>
        </filter>
    </defs>
    <g fill="none" fill-rule="evenodd">
        <g>
            <g>
                <g transform="translate(-772 -1700) translate(772 1700) translate(14 11)">
                    <rect width="60.5" height="67.5" x=".75" y=".75" stroke="#B3B3B3" stroke-width="1.5" rx="3"/>
                    <rect width="20" height="1.5" x="15" y="9" fill="#B3B3B3" rx=".75"/>
                    <rect width="48" height="1.5" x="7" y="52" fill="#B3B3B3" rx=".75"/>
                    <rect width="28" height="1.5" x="7" y="58" fill="#B3B3B3" rx=".75"/>
                    <rect width="46.5" height="21.5" x="7.75" y="16.75" stroke="#B3B3B3" stroke-width="1.5" rx="1"/>
                    <path stroke="#B3B3B3" stroke-linecap="round" stroke-linejoin="round" stroke-width="1.5" d="M14 37.91c.286-.19 3.953-5.341 11-15.454l9.545 15.6"/>
                    <path stroke="#B3B3B3" stroke-linecap="round" stroke-linejoin="round" stroke-width="1.5" d="M32 33.972c.125-.078 1.724-2.2 4.8-6.365l6.2 10"/>
                    <circle cx="10" cy="10" r="2.5" stroke="#B3B3B3"/>
                    <g stroke-linecap="round" stroke-linejoin="round">
                        <g filter="url(#0wpdx3soqa)" transform="translate(7 42)">
                            <path stroke="#282828" d="M4.094.875c-.396 0-.854.296-1.025.83-.023.071-.116.071-.138 0-.171-.534-.63-.83-1.025-.83-.712 0-1.281.58-1.281 1.417 0 .969.916 1.926 2.163 2.742.069.046.154.091.212.091.058 0 .143-.045.212-.09 1.247-.817 2.163-1.774 2.163-2.743 0-.836-.569-1.417-1.28-1.417z"/>
                        </g>
                    </g>
                </g>
            </g>
        </g>
    </g>
</svg>
