<?xml version="1.0" encoding="UTF-8"?>
<svg width="58px" height="12px" viewBox="0 0 58 12" version="1.1" xmlns="http://www.w3.org/2000/svg" xmlns:xlink="http://www.w3.org/1999/xlink">
    <title>F373DA86-A86C-4CFF-A0C7-7999107282A4</title>
    <g id="family-VIP" stroke="none" stroke-width="1" fill="none" fill-rule="evenodd" opacity="0.3">
        <g id="VIP-family---mannage-2" transform="translate(-566.000000, -659.000000)" fill-rule="nonzero">
            <g id="label-member" transform="translate(566.000000, 659.000000)">
                <path d="M4,0 L54,0 C56.209139,-4.05812251e-16 58,1.790861 58,4 L58,8 C58,10.209139 56.209139,12 54,12 L4,12 C1.790861,12 2.705415e-16,10.209139 0,8 L0,4 C-2.705415e-16,1.790861 1.790861,4.05812251e-16 4,0 Z" id="Rectangle" fill="#65509E"></path>
                <path d="M5.921875,9.046875 C6.09635417,9.046875 6.23958333,8.99153646 6.3515625,8.88085938 C6.46354167,8.77018229 6.51953125,8.61848958 6.51953125,8.42578125 L6.51953125,8.42578125 L6.51953125,4.40625 L7.390625,4.40625 C7.5703125,4.40625 7.70963542,4.34895833 7.80859375,4.234375 C7.89453125,4.1328125 7.9375,4.00651042 7.9375,3.85546875 C7.9375,3.70703125 7.88932292,3.58072917 7.79296875,3.4765625 C7.68880208,3.36197917 7.5546875,3.3046875 7.390625,3.3046875 L7.390625,3.3046875 L4.44921875,3.3046875 C4.28515625,3.3046875 4.15104167,3.36197917 4.046875,3.4765625 C3.95052083,3.58072917 3.90234375,3.70703125 3.90234375,3.85546875 C3.90234375,4.00651042 3.9453125,4.1328125 4.03125,4.234375 C4.13020833,4.34895833 4.26953125,4.40625 4.44921875,4.40625 L4.44921875,4.40625 L5.3203125,4.40625 L5.3203125,8.42578125 C5.3203125,8.61848958 5.37630208,8.77018229 5.48828125,8.88085938 C5.60026042,8.99153646 5.74479167,9.046875 5.921875,9.046875 Z M13.1783854,9.046875 C13.3554688,9.046875 13.5,8.99153646 13.6119792,8.88085938 C13.7239583,8.77018229 13.7799479,8.61848958 13.7799479,8.42578125 L13.7799479,8.42578125 L13.7799479,3.87890625 C13.7799479,3.68359375 13.7239583,3.53125 13.6119792,3.421875 C13.5,3.3125 13.3554688,3.2578125 13.1783854,3.2578125 C13.0013021,3.2578125 12.8567708,3.3125 12.7447917,3.421875 C12.6328125,3.53125 12.5768229,3.68359375 12.5768229,3.87890625 L12.5768229,3.87890625 L12.5768229,5.57421875 L10.0651042,5.57421875 L10.0651042,3.87890625 C10.0651042,3.68359375 10.0097656,3.53125 9.89908854,3.421875 C9.78841146,3.3125 9.64453125,3.2578125 9.46744792,3.2578125 C9.29036458,3.2578125 9.14583333,3.3125 9.03385417,3.421875 C8.921875,3.53125 8.86588542,3.68359375 8.86588542,3.87890625 L8.86588542,3.87890625 L8.86588542,8.42578125 C8.86588542,8.61848958 8.921875,8.77018229 9.03385417,8.88085938 C9.14583333,8.99153646 9.29036458,9.046875 9.46744792,9.046875 C9.64453125,9.046875 9.78841146,8.99153646 9.89908854,8.88085938 C10.0097656,8.77018229 10.0651042,8.61848958 10.0651042,8.42578125 L10.0651042,8.42578125 L10.0651042,6.6796875 L12.5768229,6.6796875 L12.5768229,8.42578125 C12.5768229,8.61848958 12.6328125,8.77018229 12.7447917,8.88085938 C12.8567708,8.99153646 13.0013021,9.046875 13.1783854,9.046875 Z M17.3177083,2.83984375 C17.4114583,2.83984375 17.4915365,2.79101562 17.5579427,2.69335938 C17.624349,2.59570312 17.6575521,2.48828125 17.6575521,2.37109375 C17.6575521,2.26171875 17.5976562,2.17708333 17.4778646,2.1171875 L17.4778646,2.1171875 L16.6731771,1.78515625 C16.5664062,1.74088542 16.484375,1.71875 16.4270833,1.71875 C16.3359375,1.71875 16.2558594,1.76236979 16.186849,1.84960938 C16.1178385,1.93684896 16.0833333,2.02604167 16.0833333,2.1171875 C16.0833333,2.29947917 16.1705729,2.42578125 16.3450521,2.49609375 L16.3450521,2.49609375 L17.0598958,2.77734375 C17.1692708,2.81901042 17.2552083,2.83984375 17.3177083,2.83984375 Z M19.2786458,9.046875 C19.4296875,9.046875 19.5592448,8.99739583 19.6673177,8.8984375 C19.7753906,8.79947917 19.8294271,8.67317708 19.8294271,8.51953125 C19.8294271,8.44140625 19.8085937,8.34244792 19.7669271,8.22265625 L19.7669271,8.22265625 L18.1966146,3.87109375 C18.0377604,3.42838542 17.7526042,3.20703125 17.3411458,3.20703125 C16.9348958,3.20703125 16.6497396,3.42838542 16.4856771,3.87109375 L16.4856771,3.87109375 L14.8763021,8.22265625 C14.8398437,8.32421875 14.8216146,8.41276042 14.8216146,8.48828125 C14.8216146,8.64713542 14.8795573,8.77994792 14.9954427,8.88671875 C15.1113281,8.99348958 15.2513021,9.046875 15.4153646,9.046875 C15.7070312,9.046875 15.8984375,8.90625 15.9895833,8.625 L15.9895833,8.625 L16.2317708,7.87890625 L18.4544271,7.87890625 L18.6927083,8.6328125 C18.78125,8.90885417 18.9765625,9.046875 19.2786458,9.046875 Z M18.0950521,6.77734375 L16.5755208,6.77734375 L17.3333333,4.45703125 L17.3489583,4.45703125 L18.0950521,6.77734375 Z M25.078125,9.046875 C25.2552083,9.046875 25.3997396,8.99153646 25.5117188,8.88085938 C25.6236979,8.77018229 25.6796875,8.61848958 25.6796875,8.42578125 L25.6796875,8.42578125 L25.6796875,3.87890625 C25.6796875,3.68359375 25.6236979,3.53125 25.5117188,3.421875 C25.3997396,3.3125 25.2552083,3.2578125 25.078125,3.2578125 C24.9010417,3.2578125 24.7591146,3.31119792 24.6523438,3.41796875 C24.5377604,3.52994792 24.4804688,3.68359375 24.4804688,3.87890625 L24.4804688,3.87890625 L24.4804688,6.90234375 L24.4648438,6.90234375 L21.9257812,3.51953125 C21.7955729,3.34505208 21.6276042,3.2578125 21.421875,3.2578125 C21.2473958,3.2578125 21.1041667,3.3125 20.9921875,3.421875 C20.8802083,3.53125 20.8242188,3.68359375 20.8242188,3.87890625 L20.8242188,3.87890625 L20.8242188,8.42578125 C20.8242188,8.61848958 20.8802083,8.77018229 20.9921875,8.88085938 C21.1041667,8.99153646 21.2473958,9.046875 21.421875,9.046875 C21.5989583,9.046875 21.7434896,8.99153646 21.8554688,8.88085938 C21.9674479,8.77018229 22.0234375,8.61848958 22.0234375,8.42578125 L22.0234375,8.42578125 L22.0234375,5.44140625 L22.0390625,5.44140625 L24.5742188,8.78515625 C24.7096354,8.95963542 24.8776042,9.046875 25.078125,9.046875 Z M31.3307292,9.046875 C31.5078125,9.046875 31.6523437,8.99153646 31.7643229,8.88085938 C31.8763021,8.77018229 31.9322917,8.61848958 31.9322917,8.42578125 L31.9322917,8.42578125 L31.9322917,3.87890625 C31.9322917,3.68359375 31.8763021,3.53125 31.7643229,3.421875 C31.6523437,3.3125 31.5078125,3.2578125 31.3307292,3.2578125 C31.1536458,3.2578125 31.0091146,3.3125 30.8971354,3.421875 C30.7851562,3.53125 30.7291667,3.68359375 30.7291667,3.87890625 L30.7291667,3.87890625 L30.7291667,5.57421875 L28.2174479,5.57421875 L28.2174479,3.87890625 C28.2174479,3.68359375 28.1621094,3.53125 28.0514323,3.421875 C27.9407552,3.3125 27.796875,3.2578125 27.6197917,3.2578125 C27.4427083,3.2578125 27.2981771,3.3125 27.1861979,3.421875 C27.0742187,3.53125 27.0182292,3.68359375 27.0182292,3.87890625 L27.0182292,3.87890625 L27.0182292,8.42578125 C27.0182292,8.61848958 27.0742187,8.77018229 27.1861979,8.88085938 C27.2981771,8.99153646 27.4427083,9.046875 27.6197917,9.046875 C27.796875,9.046875 27.9407552,8.99153646 28.0514323,8.88085938 C28.1621094,8.77018229 28.2174479,8.61848958 28.2174479,8.42578125 L28.2174479,8.42578125 L28.2174479,6.6796875 L30.7291667,6.6796875 L30.7291667,8.42578125 C30.7291667,8.61848958 30.7851562,8.77018229 30.8971354,8.88085938 C31.0091146,8.99153646 31.1536458,9.046875 31.3307292,9.046875 Z M38.0898438,9.046875 C38.3632812,9.046875 38.5611979,8.89322917 38.6835938,8.5859375 L38.6835938,8.5859375 L40.4335938,4.12890625 C40.4726562,4.03255208 40.4921875,3.93359375 40.4921875,3.83203125 C40.4921875,3.66796875 40.4303385,3.53125 40.3066406,3.421875 C40.1829427,3.3125 40.0390625,3.2578125 39.875,3.2578125 C39.6380208,3.2578125 39.4570312,3.38802083 39.3320312,3.6484375 L39.3320312,3.6484375 L38.0898438,6.9765625 L36.8515625,3.6484375 C36.7239583,3.38802083 36.5429688,3.2578125 36.3085938,3.2578125 C36.1419271,3.2578125 35.9973958,3.3125 35.875,3.421875 C35.7526042,3.53125 35.6914062,3.66796875 35.6914062,3.83203125 C35.6914062,3.93359375 35.7096354,4.03255208 35.7460938,4.12890625 L35.7460938,4.12890625 L37.5,8.5859375 C37.6197917,8.89322917 37.8164062,9.046875 38.0898438,9.046875 Z M42.0846354,9.046875 C42.2617187,9.046875 42.405599,8.99153646 42.516276,8.88085938 C42.6269531,8.77018229 42.6822917,8.61848958 42.6822917,8.42578125 L42.6822917,8.42578125 L42.6822917,3.87890625 C42.6822917,3.68359375 42.6269531,3.53125 42.516276,3.421875 C42.405599,3.3125 42.2617187,3.2578125 42.0846354,3.2578125 C41.9075521,3.2578125 41.7630208,3.3125 41.6510417,3.421875 C41.5390625,3.53125 41.4830729,3.68359375 41.4830729,3.87890625 L41.4830729,3.87890625 L41.4830729,8.42578125 C41.4830729,8.61848958 41.5390625,8.77018229 41.6510417,8.88085938 C41.7630208,8.99153646 41.9075521,9.046875 42.0846354,9.046875 Z M46.2239583,2.87890625 C46.3255208,2.87890625 46.4160156,2.83658854 46.4954427,2.75195312 C46.5748698,2.66731771 46.6145833,2.57291667 46.6145833,2.46875 C46.6145833,2.2890625 46.5169271,2.15885417 46.3216146,2.078125 L46.3216146,2.078125 L45.6419271,1.8046875 L44.9622396,2.078125 C44.7669271,2.15885417 44.6692708,2.2890625 44.6692708,2.46875 C44.6692708,2.57291667 44.7089844,2.66731771 44.7884115,2.75195312 C44.8678385,2.83658854 44.9583333,2.87890625 45.0598958,2.87890625 C45.1796875,2.87890625 45.2903646,2.84114583 45.3919271,2.765625 L45.3919271,2.765625 L45.6419271,2.578125 L45.8919271,2.765625 C45.9934896,2.84114583 46.1041667,2.87890625 46.2239583,2.87890625 Z M46.7513021,9 C46.9283854,9 47.0703125,8.94140625 47.1770833,8.82421875 C47.2734375,8.72005208 47.3216146,8.59505208 47.3216146,8.44921875 C47.3216146,8.29557292 47.2747396,8.16796875 47.1809896,8.06640625 C47.0768229,7.95182292 46.9335937,7.89453125 46.7513021,7.89453125 L46.7513021,7.89453125 L45.2708333,7.89453125 L45.2708333,6.6796875 L46.5833333,6.6796875 C46.765625,6.6796875 46.9114583,6.62239583 47.0208333,6.5078125 C47.1197917,6.40104167 47.1692708,6.27473958 47.1692708,6.12890625 C47.1692708,5.97786458 47.1210937,5.85026042 47.0247396,5.74609375 C46.9153646,5.63151042 46.7682292,5.57421875 46.5833333,5.57421875 L46.5833333,5.57421875 L45.2708333,5.57421875 L45.2708333,4.40625 L46.6809896,4.40625 C46.8580729,4.40625 47,4.34895833 47.1067708,4.234375 C47.2005208,4.13020833 47.2473958,4.00390625 47.2473958,3.85546875 C47.2473958,3.70442708 47.2005208,3.578125 47.1067708,3.4765625 C47.0026042,3.36197917 46.8606771,3.3046875 46.6809896,3.3046875 L46.6809896,3.3046875 L44.6966146,3.3046875 C44.2799479,3.3046875 44.0716146,3.53645833 44.0716146,4 L44.0716146,4 L44.0716146,8.3984375 C44.0716146,8.578125 44.1295573,8.72330729 44.2454427,8.83398438 C44.3613281,8.94466146 44.5091146,9 44.6888021,9 L44.6888021,9 L46.7513021,9 Z M52.6484375,9.046875 C52.8255208,9.046875 52.9700521,8.99153646 53.0820312,8.88085938 C53.1940104,8.77018229 53.25,8.61848958 53.25,8.42578125 L53.25,8.42578125 L53.25,3.87890625 C53.25,3.68359375 53.1940104,3.53125 53.0820312,3.421875 C52.9700521,3.3125 52.8255208,3.2578125 52.6484375,3.2578125 C52.4713542,3.2578125 52.3294271,3.31119792 52.2226562,3.41796875 C52.1080729,3.52994792 52.0507812,3.68359375 52.0507812,3.87890625 L52.0507812,3.87890625 L52.0507812,6.90234375 L52.0351562,6.90234375 L49.4960937,3.51953125 C49.3658854,3.34505208 49.1979167,3.2578125 48.9921875,3.2578125 C48.8177083,3.2578125 48.6744792,3.3125 48.5625,3.421875 C48.4505208,3.53125 48.3945312,3.68359375 48.3945312,3.87890625 L48.3945312,3.87890625 L48.3945312,8.42578125 C48.3945312,8.61848958 48.4505208,8.77018229 48.5625,8.88085938 C48.6744792,8.99153646 48.8177083,9.046875 48.9921875,9.046875 C49.1692708,9.046875 49.3138021,8.99153646 49.4257812,8.88085938 C49.5377604,8.77018229 49.59375,8.61848958 49.59375,8.42578125 L49.59375,8.42578125 L49.59375,5.44140625 L49.609375,5.44140625 L52.1445312,8.78515625 C52.2799479,8.95963542 52.4479167,9.046875 52.6484375,9.046875 Z" id="THÀNHVIÊN" fill="#FFFFFF"></path>
            </g>
        </g>
    </g>
</svg>