<?xml version="1.0" encoding="UTF-8"?>
<svg width="69px" height="12px" viewBox="0 0 69 12" version="1.1" xmlns="http://www.w3.org/2000/svg" xmlns:xlink="http://www.w3.org/1999/xlink">
    <title>label-wait-response</title>
    <g id="family-VIP" stroke="none" stroke-width="1" fill="none" fill-rule="evenodd" opacity="0.3">
        <g id="VIP-family---mannage-2" transform="translate(-562.000000, -700.000000)" fill-rule="nonzero">
            <g id="label-wait-response" transform="translate(562.000000, 700.000000)">
                <path d="M4,0 L65,0 C67.209139,-4.05812251e-16 69,1.790861 69,4 L69,8 C69,10.209139 67.209139,12 65,12 L4,12 C1.790861,12 2.705415e-16,10.209139 0,8 L0,4 C-2.705415e-16,1.790861 1.790861,4.05812251e-16 4,0 Z" id="Rectangle" fill="#E7E7E7"></path>
                <path d="M6.88671875,9.09765625 C7.30598958,9.09765625 7.68098958,9.03515625 8.01171875,8.91015625 C8.46223958,8.74348958 8.6875,8.49088542 8.6875,8.15234375 C8.6875,8.03776042 8.64453125,7.92447917 8.55859375,7.8125 C8.45442708,7.67708333 8.32161458,7.609375 8.16015625,7.609375 C8.07942708,7.609375 7.91015625,7.66536458 7.65234375,7.77734375 C7.39453125,7.88932292 7.13932292,7.9453125 6.88671875,7.9453125 C6.41536458,7.9453125 6.04166667,7.76953125 5.765625,7.41796875 C5.51041667,7.09244792 5.3828125,6.67838542 5.3828125,6.17578125 C5.3828125,5.66015625 5.51041667,5.23567708 5.765625,4.90234375 C6.0390625,4.54036458 6.41276042,4.359375 6.88671875,4.359375 C7.13932292,4.359375 7.38671875,4.40625 7.62890625,4.5 C7.87109375,4.59375 8.03255208,4.640625 8.11328125,4.640625 C8.25651042,4.640625 8.375,4.58789062 8.46875,4.48242188 C8.5625,4.37695312 8.609375,4.25130208 8.609375,4.10546875 C8.609375,3.79296875 8.39583333,3.5546875 7.96875,3.390625 C7.64583333,3.26822917 7.28515625,3.20703125 6.88671875,3.20703125 C6.07942708,3.20703125 5.41666667,3.48958333 4.8984375,4.0546875 C4.390625,4.61197917 4.13671875,5.31119792 4.13671875,6.15234375 C4.13671875,6.99088542 4.39192708,7.68880208 4.90234375,8.24609375 C5.42317708,8.81380208 6.08463542,9.09765625 6.88671875,9.09765625 Z M14.0585937,9.046875 C14.2356771,9.046875 14.3802083,8.99153646 14.4921875,8.88085938 C14.6041667,8.77018229 14.6601562,8.61848958 14.6601562,8.42578125 L14.6601562,8.42578125 L14.6601562,3.87890625 C14.6601562,3.68359375 14.6041667,3.53125 14.4921875,3.421875 C14.3802083,3.3125 14.2356771,3.2578125 14.0585937,3.2578125 C13.8815104,3.2578125 13.7369792,3.3125 13.625,3.421875 C13.5130208,3.53125 13.4570312,3.68359375 13.4570312,3.87890625 L13.4570312,3.87890625 L13.4570312,5.57421875 L10.9453125,5.57421875 L10.9453125,3.87890625 C10.9453125,3.68359375 10.889974,3.53125 10.7792969,3.421875 C10.6686198,3.3125 10.5247396,3.2578125 10.3476562,3.2578125 C10.1705729,3.2578125 10.0260417,3.3125 9.9140625,3.421875 C9.80208333,3.53125 9.74609375,3.68359375 9.74609375,3.87890625 L9.74609375,3.87890625 L9.74609375,8.42578125 C9.74609375,8.61848958 9.80208333,8.77018229 9.9140625,8.88085938 C10.0260417,8.99153646 10.1705729,9.046875 10.3476562,9.046875 C10.5247396,9.046875 10.6686198,8.99153646 10.7792969,8.88085938 C10.889974,8.77018229 10.9453125,8.61848958 10.9453125,8.42578125 L10.9453125,8.42578125 L10.9453125,6.6796875 L13.4570312,6.6796875 L13.4570312,8.42578125 C13.4570312,8.61848958 13.5130208,8.77018229 13.625,8.88085938 C13.7369792,8.99153646 13.8815104,9.046875 14.0585937,9.046875 Z M18.4765625,2.83984375 C18.5703125,2.83984375 18.6503906,2.79101562 18.7167969,2.69335938 C18.7832031,2.59570312 18.8164062,2.48828125 18.8164062,2.37109375 C18.8164062,2.26171875 18.7565104,2.17708333 18.6367187,2.1171875 L18.6367187,2.1171875 L17.8320312,1.78515625 C17.7252604,1.74088542 17.6432292,1.71875 17.5859375,1.71875 C17.4947917,1.71875 17.4147135,1.76236979 17.3457031,1.84960938 C17.2766927,1.93684896 17.2421875,2.02604167 17.2421875,2.1171875 C17.2421875,2.29947917 17.3294271,2.42578125 17.5039062,2.49609375 L17.5039062,2.49609375 L18.21875,2.77734375 C18.328125,2.81901042 18.4140625,2.83984375 18.4765625,2.83984375 Z M18.40625,9.09765625 C19.2161458,9.09765625 19.8802083,8.81380208 20.3984375,8.24609375 C20.90625,7.68880208 21.1601562,6.99088542 21.1601562,6.15234375 C21.1601562,5.36588542 20.9231771,4.6953125 20.4492187,4.140625 L20.4492187,4.140625 L20.8398437,3.4375 C20.8893229,3.3515625 20.9140625,3.27734375 20.9140625,3.21484375 C20.9140625,3.11588542 20.875,3.02929688 20.796875,2.95507812 C20.71875,2.88085938 20.6289062,2.84375 20.5273437,2.84375 C20.3815104,2.84375 20.2734375,2.90755208 20.203125,3.03515625 L20.203125,3.03515625 L19.8710937,3.6328125 C19.4361979,3.34895833 18.9479167,3.20703125 18.40625,3.20703125 C17.5989583,3.20703125 16.9361979,3.48958333 16.4179687,4.0546875 C15.9101562,4.61197917 15.65625,5.31119792 15.65625,6.15234375 C15.65625,6.99088542 15.9114583,7.68880208 16.421875,8.24609375 C16.9427083,8.81380208 17.6041667,9.09765625 18.40625,9.09765625 Z M18.40625,7.9921875 C17.9244792,7.9921875 17.546875,7.80729167 17.2734375,7.4375 C17.0260417,7.1015625 16.9023437,6.67317708 16.9023437,6.15234375 C16.9023437,5.63671875 17.0286458,5.20833333 17.28125,4.8671875 C17.5546875,4.49739583 17.9296875,4.3125 18.40625,4.3125 C18.8828125,4.3125 19.2591146,4.49739583 19.5351562,4.8671875 C19.7851562,5.20833333 19.9101562,5.63671875 19.9101562,6.15234375 C19.9101562,6.67317708 19.7864583,7.1015625 19.5390625,7.4375 C19.2682292,7.80729167 18.890625,7.9921875 18.40625,7.9921875 Z M25.3554687,9.046875 C25.5325521,9.046875 25.6764323,8.99153646 25.7871094,8.88085938 C25.8977865,8.77018229 25.953125,8.61848958 25.953125,8.42578125 L25.953125,8.42578125 L25.953125,7.11328125 L26.84375,7.11328125 C27.40625,7.11328125 27.8763021,6.94270833 28.2539062,6.6015625 C28.6471354,6.24739583 28.84375,5.78515625 28.84375,5.21484375 C28.84375,4.64973958 28.6503906,4.19010417 28.2636719,3.8359375 C27.8769531,3.48177083 27.3867187,3.3046875 26.7929687,3.3046875 L26.7929687,3.3046875 L25.3789062,3.3046875 C24.9622396,3.3046875 24.7539062,3.51302083 24.7539062,3.9296875 L24.7539062,3.9296875 L24.7539062,8.42578125 C24.7539062,8.61848958 24.8098958,8.77018229 24.921875,8.88085938 C25.0338542,8.99153646 25.1783854,9.046875 25.3554687,9.046875 Z M26.7695312,6.0546875 L25.953125,6.0546875 L25.953125,4.359375 L26.7695312,4.359375 C27.0169271,4.359375 27.2161458,4.43945312 27.3671875,4.59960938 C27.5182292,4.75976562 27.59375,4.96223958 27.59375,5.20703125 C27.59375,5.45182292 27.5182292,5.65429688 27.3671875,5.81445312 C27.2161458,5.97460938 27.0169271,6.0546875 26.7695312,6.0546875 L26.7695312,6.0546875 Z M34.015625,9.046875 C34.1927083,9.046875 34.3372396,8.99153646 34.4492187,8.88085938 C34.5611979,8.77018229 34.6171875,8.61848958 34.6171875,8.42578125 L34.6171875,8.42578125 L34.6171875,3.87890625 C34.6171875,3.68359375 34.5611979,3.53125 34.4492187,3.421875 C34.3372396,3.3125 34.1927083,3.2578125 34.015625,3.2578125 C33.8385417,3.2578125 33.6940104,3.3125 33.5820312,3.421875 C33.4700521,3.53125 33.4140625,3.68359375 33.4140625,3.87890625 L33.4140625,3.87890625 L33.4140625,5.57421875 L30.9023437,5.57421875 L30.9023437,3.87890625 C30.9023437,3.68359375 30.8470052,3.53125 30.7363281,3.421875 C30.625651,3.3125 30.4817708,3.2578125 30.3046875,3.2578125 C30.1276042,3.2578125 29.9830729,3.3125 29.8710937,3.421875 C29.7591146,3.53125 29.703125,3.68359375 29.703125,3.87890625 L29.703125,3.87890625 L29.703125,8.42578125 C29.703125,8.61848958 29.7591146,8.77018229 29.8710937,8.88085938 C29.9830729,8.99153646 30.1276042,9.046875 30.3046875,9.046875 C30.4817708,9.046875 30.625651,8.99153646 30.7363281,8.88085938 C30.8470052,8.77018229 30.9023437,8.61848958 30.9023437,8.42578125 L30.9023437,8.42578125 L30.9023437,6.6796875 L33.4140625,6.6796875 L33.4140625,8.42578125 C33.4140625,8.61848958 33.4700521,8.77018229 33.5820312,8.88085938 C33.6940104,8.99153646 33.8385417,9.046875 34.015625,9.046875 Z M38.0273437,2.83984375 C38.1914062,2.83984375 38.2734375,2.75390625 38.2734375,2.58203125 L38.2734375,2.58203125 L38.2734375,2.3671875 C38.6145833,2.26302083 38.7851562,2.03385417 38.7851562,1.6796875 C38.7851562,1.4765625 38.7083333,1.31119792 38.5546875,1.18359375 C38.4114583,1.06640625 38.2356771,1.0078125 38.0273437,1.0078125 C37.8528646,1.0078125 37.6979167,1.05729167 37.5625,1.15625 C37.4192708,1.26302083 37.3398437,1.40104167 37.3242187,1.5703125 C37.3164062,1.64322917 37.3365885,1.70507812 37.3847656,1.75585938 C37.4329427,1.80664062 37.4934896,1.83203125 37.5664062,1.83203125 C37.6575521,1.83203125 37.7311198,1.7734375 37.7871094,1.65625 C37.843099,1.5390625 37.9257812,1.48046875 38.0351562,1.48046875 C38.2018229,1.48046875 38.2851562,1.5546875 38.2851562,1.703125 C38.2851562,1.81510417 38.2252604,1.88802083 38.1054687,1.921875 C37.9544271,1.96614583 37.8684896,2.00130208 37.8476562,2.02734375 C37.8085937,2.07942708 37.7890625,2.14973958 37.7890625,2.23828125 L37.7890625,2.23828125 L37.7890625,2.58203125 C37.7890625,2.75390625 37.8684896,2.83984375 38.0273437,2.83984375 Z M39.9492187,9.046875 C40.1002604,9.046875 40.2298177,8.99739583 40.3378906,8.8984375 C40.4459635,8.79947917 40.5,8.67317708 40.5,8.51953125 C40.5,8.44140625 40.4791667,8.34244792 40.4375,8.22265625 L40.4375,8.22265625 L38.8671875,3.87109375 C38.7083333,3.42838542 38.4231771,3.20703125 38.0117187,3.20703125 C37.6054687,3.20703125 37.3203125,3.42838542 37.15625,3.87109375 L37.15625,3.87109375 L35.546875,8.22265625 C35.5104167,8.32421875 35.4921875,8.41276042 35.4921875,8.48828125 C35.4921875,8.64713542 35.5501302,8.77994792 35.6660156,8.88671875 C35.781901,8.99348958 35.921875,9.046875 36.0859375,9.046875 C36.3776042,9.046875 36.5690104,8.90625 36.6601562,8.625 L36.6601562,8.625 L36.9023437,7.87890625 L39.125,7.87890625 L39.3632812,8.6328125 C39.4518229,8.90885417 39.6471354,9.046875 39.9492187,9.046875 Z M38.765625,6.77734375 L37.2460937,6.77734375 L38.0039062,4.45703125 L38.0195312,4.45703125 L38.765625,6.77734375 Z M45.5820312,9.046875 C45.7591146,9.046875 45.9036458,8.99153646 46.015625,8.88085938 C46.1276042,8.77018229 46.1835937,8.61848958 46.1835937,8.42578125 L46.1835937,8.42578125 L46.1835937,3.87890625 C46.1835937,3.68359375 46.1276042,3.53125 46.015625,3.421875 C45.9036458,3.3125 45.7591146,3.2578125 45.5820312,3.2578125 C45.4049479,3.2578125 45.2630208,3.31119792 45.15625,3.41796875 C45.0416667,3.52994792 44.984375,3.68359375 44.984375,3.87890625 L44.984375,3.87890625 L44.984375,6.90234375 L44.96875,6.90234375 L42.4296875,3.51953125 C42.2994792,3.34505208 42.1315104,3.2578125 41.9257812,3.2578125 C41.7513021,3.2578125 41.6080729,3.3125 41.4960937,3.421875 C41.3841146,3.53125 41.328125,3.68359375 41.328125,3.87890625 L41.328125,3.87890625 L41.328125,8.42578125 C41.328125,8.61848958 41.3841146,8.77018229 41.4960937,8.88085938 C41.6080729,8.99153646 41.7513021,9.046875 41.9257812,9.046875 C42.1028646,9.046875 42.2473958,8.99153646 42.359375,8.88085938 C42.4713542,8.77018229 42.5273437,8.61848958 42.5273437,8.42578125 L42.5273437,8.42578125 L42.5273437,5.44140625 L42.5429687,5.44140625 L45.078125,8.78515625 C45.2135417,8.95963542 45.3815104,9.046875 45.5820312,9.046875 Z M54.265625,9.046875 C54.4427083,9.046875 54.5872396,8.99153646 54.6992187,8.88085938 C54.8111979,8.77018229 54.8671875,8.61848958 54.8671875,8.42578125 L54.8671875,8.42578125 L54.8671875,3.87890625 C54.8671875,3.68359375 54.8111979,3.53125 54.6992187,3.421875 C54.5872396,3.3125 54.4427083,3.2578125 54.265625,3.2578125 C54.0885417,3.2578125 53.9440104,3.3125 53.8320312,3.421875 C53.7200521,3.53125 53.6640625,3.68359375 53.6640625,3.87890625 L53.6640625,3.87890625 L53.6640625,5.57421875 L51.1523437,5.57421875 L51.1523437,3.87890625 C51.1523437,3.68359375 51.0970052,3.53125 50.9863281,3.421875 C50.875651,3.3125 50.7317708,3.2578125 50.5546875,3.2578125 C50.3776042,3.2578125 50.2330729,3.3125 50.1210937,3.421875 C50.0091146,3.53125 49.953125,3.68359375 49.953125,3.87890625 L49.953125,3.87890625 L49.953125,8.42578125 C49.953125,8.61848958 50.0091146,8.77018229 50.1210937,8.88085938 C50.2330729,8.99153646 50.3776042,9.046875 50.5546875,9.046875 C50.7317708,9.046875 50.875651,8.99153646 50.9863281,8.88085938 C51.0970052,8.77018229 51.1523437,8.61848958 51.1523437,8.42578125 L51.1523437,8.42578125 L51.1523437,6.6796875 L53.6640625,6.6796875 L53.6640625,8.42578125 C53.6640625,8.61848958 53.7200521,8.77018229 53.8320312,8.88085938 C53.9440104,8.99153646 54.0885417,9.046875 54.265625,9.046875 Z M59.3085937,1.75390625 C59.4023437,1.75390625 59.4824219,1.70507812 59.5488281,1.60742188 C59.6152344,1.50976562 59.6484375,1.40234375 59.6484375,1.28515625 C59.6484375,1.17578125 59.5885417,1.09114583 59.46875,1.03125 L59.46875,1.03125 L58.6640625,0.69921875 C58.5572917,0.654947917 58.4752604,0.6328125 58.4179687,0.6328125 C58.3268229,0.6328125 58.2467448,0.676432292 58.1777344,0.763671875 C58.108724,0.850911458 58.0742187,0.940104167 58.0742187,1.03125 C58.0742187,1.21354167 58.1614583,1.33984375 58.3359375,1.41015625 L58.3359375,1.41015625 L59.0507812,1.69140625 C59.1601562,1.73307292 59.2460937,1.75390625 59.3085937,1.75390625 Z M59.1757812,2.87890625 C59.2773437,2.87890625 59.3678385,2.83658854 59.4472656,2.75195312 C59.5266927,2.66731771 59.5664062,2.57291667 59.5664062,2.46875 C59.5664062,2.2890625 59.46875,2.15885417 59.2734375,2.078125 L59.2734375,2.078125 L58.59375,1.8046875 L57.9140625,2.078125 C57.71875,2.15885417 57.6210937,2.2890625 57.6210937,2.46875 C57.6210937,2.57291667 57.6608073,2.66731771 57.7402344,2.75195312 C57.8196615,2.83658854 57.9101562,2.87890625 58.0117187,2.87890625 C58.1315104,2.87890625 58.2421875,2.84114583 58.34375,2.765625 L58.34375,2.765625 L58.59375,2.578125 L58.84375,2.765625 C58.9453125,2.84114583 59.0559896,2.87890625 59.1757812,2.87890625 Z M58.6132812,9.09765625 C59.4231771,9.09765625 60.0872396,8.81380208 60.6054687,8.24609375 C61.1132812,7.68880208 61.3671875,6.99088542 61.3671875,6.15234375 C61.3671875,5.32942708 61.109375,4.63541667 60.59375,4.0703125 C60.0677083,3.49479167 59.4075521,3.20703125 58.6132812,3.20703125 C57.8059896,3.20703125 57.1432292,3.48958333 56.625,4.0546875 C56.1171875,4.61197917 55.8632812,5.31119792 55.8632812,6.15234375 C55.8632812,6.99088542 56.1184896,7.68880208 56.6289062,8.24609375 C57.1497396,8.81380208 57.8111979,9.09765625 58.6132812,9.09765625 Z M58.6132812,7.9921875 C58.1315104,7.9921875 57.7539062,7.80729167 57.4804687,7.4375 C57.2330729,7.1015625 57.109375,6.67317708 57.109375,6.15234375 C57.109375,5.63671875 57.2356771,5.20833333 57.4882812,4.8671875 C57.7617187,4.49739583 58.1367187,4.3125 58.6132812,4.3125 C59.0898437,4.3125 59.4661458,4.49739583 59.7421875,4.8671875 C59.9921875,5.20833333 60.1171875,5.63671875 60.1171875,6.15234375 C60.1171875,6.67317708 59.9934896,7.1015625 59.7460937,7.4375 C59.4752604,7.80729167 59.0976562,7.9921875 58.6132812,7.9921875 Z M62.9648437,9.046875 C63.1419271,9.046875 63.2858073,8.99153646 63.3964844,8.88085938 C63.5071615,8.77018229 63.5625,8.61848958 63.5625,8.42578125 L63.5625,8.42578125 L63.5625,3.87890625 C63.5625,3.68359375 63.5071615,3.53125 63.3964844,3.421875 C63.2858073,3.3125 63.1419271,3.2578125 62.9648437,3.2578125 C62.7877604,3.2578125 62.6432292,3.3125 62.53125,3.421875 C62.4192708,3.53125 62.3632812,3.68359375 62.3632812,3.87890625 L62.3632812,3.87890625 L62.3632812,8.42578125 C62.3632812,8.61848958 62.4192708,8.77018229 62.53125,8.88085938 C62.6432292,8.99153646 62.7877604,9.046875 62.9648437,9.046875 Z" id="CHỜPHẢNHỒI" fill-opacity="0.5" fill="#32323D"></path>
            </g>
        </g>
    </g>
</svg>