<?xml version="1.0" encoding="UTF-8"?>
<svg width="26px" height="12px" viewBox="0 0 26 12" version="1.1" xmlns="http://www.w3.org/2000/svg" xmlns:xlink="http://www.w3.org/1999/xlink">
    <title>zma</title>
    <defs>
        <linearGradient x1="3.9582782%" y1="40.580939%" x2="94.358096%" y2="59.3880194%" id="linearGradient-1">
            <stop stop-color="#ED2B91" offset="0%"></stop>
            <stop stop-color="#ED2A92" offset="0%"></stop>
            <stop stop-color="#D207E2" offset="100%"></stop>
        </linearGradient>
    </defs>
    <g id="playlist" stroke="none" stroke-width="1" fill="none" fill-rule="evenodd">
        <g id="800.-Album-responsive---zma-vip" transform="translate(-517.000000, -354.000000)">
            <g id="label-zma" transform="translate(517.000000, 354.000000)">
                <path d="M3.99966091,6.51174468e-17 L22.0003391,3.88299623e-16 C23.3911083,-2.25613263e-16 23.8954349,0.144807953 24.4038793,0.416727018 C24.9123237,0.688646082 25.3113539,1.08767626 25.583273,1.5961207 C25.855192,2.10456515 26,2.60889168 26,3.99966091 L26,8.00033909 C26,9.39110832 25.855192,9.89543485 25.583273,10.4038793 C25.3113539,10.9123237 24.9123237,11.3113539 24.4038793,11.583273 C23.8954349,11.855192 23.3911083,12 22.0003391,12 L3.99966091,12 C2.60889168,12 2.10456515,11.855192 1.5961207,11.583273 C1.08767626,11.3113539 0.688646082,10.9123237 0.416727018,10.4038793 C0.144807953,9.89543485 -1.05602154e-16,9.39110832 1.81750293e-16,8.00033909 L1.07727392e-16,3.99966091 C-6.25927171e-17,2.60889168 0.144807953,2.10456515 0.416727018,1.5961207 C0.688646082,1.08767626 1.08767626,0.688646082 1.5961207,0.416727018 C2.10456515,0.144807953 2.60889168,-3.78351118e-17 3.99966091,6.51174468e-17 Z" id="Rectangle" fill="url(#linearGradient-1)"></path>
                <path d="M7.95920573,8.95183946 C8.11319735,8.95183946 8.25097933,8.89899666 8.37255167,8.79331104 C8.494124,8.68762542 8.55491017,8.55986622 8.55491017,8.41003344 C8.55491017,8.04882943 8.35634202,7.86822742 7.95920573,7.86822742 L7.95920573,7.86822742 L5.55207348,7.86822742 L8.20640281,4.21605351 C8.32797515,4.05016722 8.38876131,3.87491639 8.38876131,3.690301 C8.38876131,3.53244147 8.33337836,3.39866221 8.22261245,3.28896321 C8.0956369,3.1632107 7.91868162,3.10033445 7.69174659,3.10033445 L7.69174659,3.10033445 L4.65649061,3.10033445 C4.49709577,3.10033445 4.35998919,3.15451505 4.24517088,3.26287625 C4.13035256,3.37123746 4.0729434,3.50301003 4.0729434,3.65819398 C4.0729434,3.82140468 4.12765095,3.94983278 4.23706605,4.04347826 C4.34648116,4.13712375 4.48628934,4.18394649 4.65649061,4.18394649 L4.65649061,4.18394649 L6.83668783,4.18394649 L4.16614886,7.88428094 C4.05538295,8.0367893 4,8.19598662 4,8.36187291 C4,8.53578595 4.06213697,8.67759197 4.18641091,8.78729097 C4.31068486,8.89698997 4.48088613,8.95183946 4.69701472,8.95183946 L4.69701472,8.95183946 L7.95920573,8.95183946 Z M15.5753073,9 C15.7455086,9 15.8880184,8.9458194 16.0028367,8.83745819 C16.117655,8.72909699 16.1750642,8.58662207 16.1750642,8.41003344 C16.1750642,8.34849498 16.1723626,8.30167224 16.1669593,8.26956522 L16.1669593,8.26956522 L15.3929488,3.68227425 C15.3659327,3.52441472 15.2794813,3.3826087 15.1335945,3.25685619 C14.971498,3.12040134 14.7864379,3.05217391 14.5784142,3.05217391 C14.3811968,3.05217391 14.2028907,3.11371237 14.0434959,3.2367893 C13.8949075,3.34916388 13.7976496,3.48428094 13.7517223,3.64214047 L13.7517223,3.64214047 L12.7710388,6.89698997 L12.7548291,6.89698997 L11.7741456,3.64214047 C11.7282183,3.48428094 11.6309604,3.34916388 11.482372,3.2367893 C11.3229772,3.11371237 11.1433203,3.05217391 10.9434013,3.05217391 C10.7353775,3.05217391 10.5516682,3.12040134 10.3922734,3.25685619 C10.2463866,3.3826087 10.1599352,3.52441472 10.1329191,3.68227425 L10.1329191,3.68227425 L9.35890855,8.26956522 C9.35350534,8.30167224 9.35080373,8.34849498 9.35080373,8.41003344 C9.35080373,8.58662207 9.40821289,8.72909699 9.5230312,8.83745819 C9.63784952,8.9458194 9.78035931,9 9.95056058,9 C10.326084,9 10.5408618,8.80869565 10.594894,8.42608696 L10.594894,8.42608696 L11.0852357,5.07892977 L11.1014454,5.07892977 L12.0983385,8.5264214 C12.1901932,8.84214047 12.411725,9 12.7629339,9 C13.1141429,9 13.3356747,8.84214047 13.4275294,8.5264214 L13.4275294,8.5264214 L14.4203701,5.07892977 L14.4406322,5.07892977 L14.9269215,8.42608696 C14.9836553,8.80869565 15.1997839,9 15.5753073,9 Z M21.42861,9 C21.5853033,9 21.7197082,8.94916388 21.8318249,8.84749164 C21.9439416,8.7458194 22,8.61605351 22,8.45819398 C22,8.37792642 21.9783871,8.27625418 21.9351614,8.15317726 L21.9351614,8.15317726 L20.3060921,3.68227425 C20.1412941,3.22742475 19.8454681,3 19.4186141,3 C18.9971633,3 18.7013373,3.22742475 18.531136,3.68227425 L18.531136,3.68227425 L16.8615426,8.15317726 C16.8237201,8.25752508 16.8048089,8.34849498 16.8048089,8.42608696 C16.8048089,8.58929766 16.8649196,8.72575251 16.9851412,8.83545151 C17.1053627,8.9451505 17.2505741,9 17.4207754,9 C17.7233554,9 17.9219235,8.85551839 18.0164798,8.56655518 L18.0164798,8.56655518 L18.2677293,7.8 L20.5735513,7.8 L20.8207483,8.57458194 C20.912603,8.85819398 21.1152236,9 21.42861,9 Z M20.2007294,6.66822742 L18.6243415,6.66822742 L19.4105093,4.28428094 L19.4267189,4.28428094 L20.2007294,6.66822742 Z" id="ZMA" fill="#FFFFFF" fill-rule="nonzero"></path>
            </g>
        </g>
    </g>
</svg>